<svg width="33" height="33" viewBox="0 0 33 33" fill="none" xmlns="http://www.w3.org/2000/svg">
<path d="M27.5 16.5C27.5 22.5637 22.5637 27.5 16.5 27.5C10.4362 27.5 5.5 22.5637 5.5 16.5C5.5 10.4362 10.4363 5.5 16.5 5.5C22.5637 5.5 27.5 10.4363 27.5 16.5ZM30.25 16.5C30.25 8.91 24.09 2.75 16.5 2.75C8.91 2.75 2.75 8.91 2.75 16.5C2.75 24.09 8.91 30.25 16.5 30.25C24.09 30.25 30.25 24.09 30.25 16.5ZM16.5 17.875L22 17.875L22 15.125L16.5 15.125L16.5 11L11 16.5L16.5 22L16.5 17.875Z" fill="#333333"/>
</svg>
