<svg width="206" height="45" viewBox="0 0 206 45" fill="none" xmlns="http://www.w3.org/2000/svg">
<path d="M12.54 29.36C10.4 29.36 8.46 28.9 6.72 27.98C5 27.04 3.64 25.75 2.64 24.11C1.66 22.45 1.17 20.58 1.17 18.5C1.17 16.42 1.66 14.56 2.64 12.92C3.64 11.26 5 9.97 6.72 9.05C8.46 8.11 10.41 7.64 12.57 7.64C14.39 7.64 16.03 7.96 17.49 8.6C18.97 9.24 20.21 10.16 21.21 11.36L18.09 14.24C16.67 12.6 14.91 11.78 12.81 11.78C11.51 11.78 10.35 12.07 9.33 12.65C8.31 13.21 7.51 14 6.93 15.02C6.37 16.04 6.09 17.2 6.09 18.5C6.09 19.8 6.37 20.96 6.93 21.98C7.51 23 8.31 23.8 9.33 24.38C10.35 24.94 11.51 25.22 12.81 25.22C14.91 25.22 16.67 24.39 18.09 22.73L21.21 25.61C20.21 26.83 18.97 27.76 17.49 28.4C16.01 29.04 14.36 29.36 12.54 29.36ZM37.9153 20.99C37.9153 21.05 37.8853 21.47 37.8253 22.25H25.6153C25.8353 23.25 26.3553 24.04 27.1753 24.62C27.9953 25.2 29.0153 25.49 30.2353 25.49C31.0753 25.49 31.8153 25.37 32.4553 25.13C33.1153 24.87 33.7253 24.47 34.2853 23.93L36.7753 26.63C35.2553 28.37 33.0353 29.24 30.1153 29.24C28.2953 29.24 26.6853 28.89 25.2853 28.19C23.8853 27.47 22.8053 26.48 22.0453 25.22C21.2853 23.96 20.9053 22.53 20.9053 20.93C20.9053 19.35 21.2753 17.93 22.0153 16.67C22.7753 15.39 23.8053 14.4 25.1053 13.7C26.4253 12.98 27.8953 12.62 29.5153 12.62C31.0953 12.62 32.5253 12.96 33.8053 13.64C35.0853 14.32 36.0853 15.3 36.8053 16.58C37.5453 17.84 37.9153 19.31 37.9153 20.99ZM29.5453 16.16C28.4853 16.16 27.5953 16.46 26.8753 17.06C26.1553 17.66 25.7153 18.48 25.5553 19.52H33.5053C33.3453 18.5 32.9053 17.69 32.1853 17.09C31.4653 16.47 30.5853 16.16 29.5453 16.16ZM49.3411 12.62C51.3411 12.62 52.9511 13.22 54.1711 14.42C55.4111 15.62 56.0311 17.4 56.0311 19.76V29H51.3511V20.48C51.3511 19.2 51.0711 18.25 50.5111 17.63C49.9511 16.99 49.1411 16.67 48.0811 16.67C46.9011 16.67 45.9611 17.04 45.2611 17.78C44.5611 18.5 44.2111 19.58 44.2111 21.02V29H39.5311V12.86H44.0011V14.75C44.6211 14.07 45.3911 13.55 46.3111 13.19C47.2311 12.81 48.2411 12.62 49.3411 12.62ZM69.1833 28.22C68.7233 28.56 68.1533 28.82 67.4733 29C66.8133 29.16 66.1133 29.24 65.3733 29.24C63.4533 29.24 61.9633 28.75 60.9033 27.77C59.8633 26.79 59.3433 25.35 59.3433 23.45V16.82H56.8533V13.22H59.3433V9.29H64.0233V13.22H68.0433V16.82H64.0233V23.39C64.0233 24.07 64.1933 24.6 64.5333 24.98C64.8933 25.34 65.3933 25.52 66.0333 25.52C66.7733 25.52 67.4033 25.32 67.9233 24.92L69.1833 28.22ZM74.7804 14.99C75.3404 14.21 76.0904 13.62 77.0304 13.22C77.9904 12.82 79.0904 12.62 80.3304 12.62V16.94C79.8104 16.9 79.4604 16.88 79.2804 16.88C77.9404 16.88 76.8904 17.26 76.1304 18.02C75.3704 18.76 74.9904 19.88 74.9904 21.38V29H70.3104V12.86H74.7804V14.99ZM88.0352 12.62C90.5352 12.62 92.4552 13.22 93.7952 14.42C95.1352 15.6 95.8052 17.39 95.8052 19.79V29H91.4252V26.99C90.5452 28.49 88.9052 29.24 86.5052 29.24C85.2652 29.24 84.1852 29.03 83.2652 28.61C82.3652 28.19 81.6752 27.61 81.1952 26.87C80.7152 26.13 80.4752 25.29 80.4752 24.35C80.4752 22.85 81.0352 21.67 82.1552 20.81C83.2952 19.95 85.0452 19.52 87.4052 19.52H91.1252C91.1252 18.5 90.8152 17.72 90.1952 17.18C89.5752 16.62 88.6452 16.34 87.4052 16.34C86.5452 16.34 85.6952 16.48 84.8552 16.76C84.0352 17.02 83.3352 17.38 82.7552 17.84L81.0752 14.57C81.9552 13.95 83.0052 13.47 84.2252 13.13C85.4652 12.79 86.7352 12.62 88.0352 12.62ZM87.6752 26.09C88.4752 26.09 89.1852 25.91 89.8052 25.55C90.4252 25.17 90.8652 24.62 91.1252 23.9V22.25H87.9152C85.9952 22.25 85.0352 22.88 85.0352 24.14C85.0352 24.74 85.2652 25.22 85.7252 25.58C86.2052 25.92 86.8552 26.09 87.6752 26.09ZM98.5409 6.74H103.221V29H98.5409V6.74ZM123.44 29.36C121.3 29.36 119.36 28.9 117.62 27.98C115.9 27.04 114.54 25.75 113.54 24.11C112.56 22.45 112.07 20.58 112.07 18.5C112.07 16.42 112.56 14.56 113.54 12.92C114.54 11.26 115.9 9.97 117.62 9.05C119.36 8.11 121.31 7.64 123.47 7.64C125.29 7.64 126.93 7.96 128.39 8.6C129.87 9.24 131.11 10.16 132.11 11.36L128.99 14.24C127.57 12.6 125.81 11.78 123.71 11.78C122.41 11.78 121.25 12.07 120.23 12.65C119.21 13.21 118.41 14 117.83 15.02C117.27 16.04 116.99 17.2 116.99 18.5C116.99 19.8 117.27 20.96 117.83 21.98C118.41 23 119.21 23.8 120.23 24.38C121.25 24.94 122.41 25.22 123.71 25.22C125.81 25.22 127.57 24.39 128.99 22.73L132.11 25.61C131.11 26.83 129.87 27.76 128.39 28.4C126.91 29.04 125.26 29.36 123.44 29.36ZM140.686 29.24C138.986 29.24 137.456 28.89 136.096 28.19C134.756 27.47 133.706 26.48 132.946 25.22C132.186 23.96 131.806 22.53 131.806 20.93C131.806 19.33 132.186 17.9 132.946 16.64C133.706 15.38 134.756 14.4 136.096 13.7C137.456 12.98 138.986 12.62 140.686 12.62C142.386 12.62 143.906 12.98 145.246 13.7C146.586 14.4 147.636 15.38 148.396 16.64C149.156 17.9 149.536 19.33 149.536 20.93C149.536 22.53 149.156 23.96 148.396 25.22C147.636 26.48 146.586 27.47 145.246 28.19C143.906 28.89 142.386 29.24 140.686 29.24ZM140.686 25.4C141.886 25.4 142.866 25 143.626 24.2C144.406 23.38 144.796 22.29 144.796 20.93C144.796 19.57 144.406 18.49 143.626 17.69C142.866 16.87 141.886 16.46 140.686 16.46C139.486 16.46 138.496 16.87 137.716 17.69C136.936 18.49 136.546 19.57 136.546 20.93C136.546 22.29 136.936 23.38 137.716 24.2C138.496 25 139.486 25.4 140.686 25.4ZM156.294 13.22H160.434V16.82H156.414V29H151.734V16.82H149.244V13.22H151.734V12.5C151.734 10.66 152.274 9.2 153.354 8.12C154.454 7.04 155.994 6.5 157.974 6.5C158.674 6.5 159.334 6.58 159.954 6.74C160.594 6.88 161.124 7.09 161.544 7.37L160.314 10.76C159.774 10.38 159.144 10.19 158.424 10.19C157.004 10.19 156.294 10.97 156.294 12.53V13.22ZM166.395 13.22H170.535V16.82H166.515V29H161.835V16.82H159.345V13.22H161.835V12.5C161.835 10.66 162.375 9.2 163.455 8.12C164.555 7.04 166.095 6.5 168.075 6.5C168.775 6.5 169.435 6.58 170.055 6.74C170.695 6.88 171.225 7.09 171.645 7.37L170.415 10.76C169.875 10.38 169.245 10.19 168.525 10.19C167.105 10.19 166.395 10.97 166.395 12.53V13.22ZM186.972 20.99C186.972 21.05 186.942 21.47 186.882 22.25H174.672C174.892 23.25 175.412 24.04 176.232 24.62C177.052 25.2 178.072 25.49 179.292 25.49C180.132 25.49 180.872 25.37 181.512 25.13C182.172 24.87 182.782 24.47 183.342 23.93L185.832 26.63C184.312 28.37 182.092 29.24 179.172 29.24C177.352 29.24 175.742 28.89 174.342 28.19C172.942 27.47 171.862 26.48 171.102 25.22C170.342 23.96 169.962 22.53 169.962 20.93C169.962 19.35 170.332 17.93 171.072 16.67C171.832 15.39 172.862 14.4 174.162 13.7C175.482 12.98 176.952 12.62 178.572 12.62C180.152 12.62 181.582 12.96 182.862 13.64C184.142 14.32 185.142 15.3 185.862 16.58C186.602 17.84 186.972 19.31 186.972 20.99ZM178.602 16.16C177.542 16.16 176.652 16.46 175.932 17.06C175.212 17.66 174.772 18.48 174.612 19.52H182.562C182.402 18.5 181.962 17.69 181.242 17.09C180.522 16.47 179.642 16.16 178.602 16.16ZM204.398 20.99C204.398 21.05 204.368 21.47 204.308 22.25H192.098C192.318 23.25 192.838 24.04 193.658 24.62C194.478 25.2 195.498 25.49 196.718 25.49C197.558 25.49 198.298 25.37 198.938 25.13C199.598 24.87 200.208 24.47 200.768 23.93L203.258 26.63C201.738 28.37 199.518 29.24 196.598 29.24C194.778 29.24 193.168 28.89 191.768 28.19C190.368 27.47 189.288 26.48 188.528 25.22C187.768 23.96 187.388 22.53 187.388 20.93C187.388 19.35 187.758 17.93 188.498 16.67C189.258 15.39 190.288 14.4 191.588 13.7C192.908 12.98 194.378 12.62 195.998 12.62C197.578 12.62 199.008 12.96 200.288 13.64C201.568 14.32 202.568 15.3 203.288 16.58C204.028 17.84 204.398 19.31 204.398 20.99ZM196.028 16.16C194.968 16.16 194.078 16.46 193.358 17.06C192.638 17.66 192.198 18.48 192.038 19.52H199.988C199.828 18.5 199.388 17.69 198.668 17.09C197.948 16.47 197.068 16.16 196.028 16.16Z" fill="#C19A0B"/>
<path opacity="0.7" d="M38.016 42.144C37.16 42.144 36.384 41.96 35.688 41.592C35 41.216 34.456 40.7 34.056 40.044C33.664 39.38 33.468 38.632 33.468 37.8C33.468 36.968 33.664 36.224 34.056 35.568C34.456 34.904 35 34.388 35.688 34.02C36.384 33.644 37.164 33.456 38.028 33.456C38.756 33.456 39.412 33.584 39.996 33.84C40.588 34.096 41.084 34.464 41.484 34.944L40.236 36.096C39.668 35.44 38.964 35.112 38.124 35.112C37.604 35.112 37.14 35.228 36.732 35.46C36.324 35.684 36.004 36 35.772 36.408C35.548 36.816 35.436 37.28 35.436 37.8C35.436 38.32 35.548 38.784 35.772 39.192C36.004 39.6 36.324 39.92 36.732 40.152C37.14 40.376 37.604 40.488 38.124 40.488C38.964 40.488 39.668 40.156 40.236 39.492L41.484 40.644C41.084 41.132 40.588 41.504 39.996 41.76C39.404 42.016 38.744 42.144 38.016 42.144ZM45.5141 42.096C44.8341 42.096 44.2221 41.956 43.6781 41.676C43.1421 41.388 42.7221 40.992 42.4181 40.488C42.1141 39.984 41.9621 39.412 41.9621 38.772C41.9621 38.132 42.1141 37.56 42.4181 37.056C42.7221 36.552 43.1421 36.16 43.6781 35.88C44.2221 35.592 44.8341 35.448 45.5141 35.448C46.1941 35.448 46.8021 35.592 47.3381 35.88C47.8741 36.16 48.2941 36.552 48.5981 37.056C48.9021 37.56 49.0541 38.132 49.0541 38.772C49.0541 39.412 48.9021 39.984 48.5981 40.488C48.2941 40.992 47.8741 41.388 47.3381 41.676C46.8021 41.956 46.1941 42.096 45.5141 42.096ZM45.5141 40.56C45.9941 40.56 46.3861 40.4 46.6901 40.08C47.0021 39.752 47.1581 39.316 47.1581 38.772C47.1581 38.228 47.0021 37.796 46.6901 37.476C46.3861 37.148 45.9941 36.984 45.5141 36.984C45.0341 36.984 44.6381 37.148 44.3261 37.476C44.0141 37.796 43.8581 38.228 43.8581 38.772C43.8581 39.316 44.0141 39.752 44.3261 40.08C44.6381 40.4 45.0341 40.56 45.5141 40.56ZM54.2294 35.448C55.0294 35.448 55.6734 35.688 56.1614 36.168C56.6574 36.648 56.9054 37.36 56.9054 38.304V42H55.0334V38.592C55.0334 38.08 54.9214 37.7 54.6974 37.452C54.4734 37.196 54.1494 37.068 53.7254 37.068C53.2534 37.068 52.8774 37.216 52.5974 37.512C52.3174 37.8 52.1774 38.232 52.1774 38.808V42H50.3054V35.544H52.0934V36.3C52.3414 36.028 52.6494 35.82 53.0174 35.676C53.3854 35.524 53.7894 35.448 54.2294 35.448ZM60.6543 35.688H62.3103V37.128H60.7023V42H58.8303V37.128H57.8343V35.688H58.8303V35.4C58.8303 34.664 59.0463 34.08 59.4783 33.648C59.9183 33.216 60.5343 33 61.3263 33C61.6063 33 61.8703 33.032 62.1183 33.096C62.3743 33.152 62.5863 33.236 62.7543 33.348L62.2623 34.704C62.0463 34.552 61.7943 34.476 61.5063 34.476C60.9383 34.476 60.6543 34.788 60.6543 35.412V35.688ZM69.4849 38.796C69.4849 38.82 69.4729 38.988 69.4489 39.3H64.5649C64.6529 39.7 64.8609 40.016 65.1889 40.248C65.5169 40.48 65.9249 40.596 66.4129 40.596C66.7489 40.596 67.0449 40.548 67.3009 40.452C67.5649 40.348 67.8089 40.188 68.0329 39.972L69.0289 41.052C68.4209 41.748 67.5329 42.096 66.3649 42.096C65.6369 42.096 64.9929 41.956 64.4329 41.676C63.8729 41.388 63.4409 40.992 63.1369 40.488C62.8329 39.984 62.6809 39.412 62.6809 38.772C62.6809 38.14 62.8289 37.572 63.1249 37.068C63.4289 36.556 63.8409 36.16 64.3609 35.88C64.8889 35.592 65.4769 35.448 66.1249 35.448C66.7569 35.448 67.3289 35.584 67.8409 35.856C68.3529 36.128 68.7529 36.52 69.0409 37.032C69.3369 37.536 69.4849 38.124 69.4849 38.796ZM66.1369 36.864C65.7129 36.864 65.3569 36.984 65.0689 37.224C64.7809 37.464 64.6049 37.792 64.5409 38.208H67.7209C67.6569 37.8 67.4809 37.476 67.1929 37.236C66.9049 36.988 66.5529 36.864 66.1369 36.864ZM70.7312 35.544H72.6032V42H70.7312V35.544ZM71.6672 34.644C71.3232 34.644 71.0432 34.544 70.8272 34.344C70.6112 34.144 70.5032 33.896 70.5032 33.6C70.5032 33.304 70.6112 33.056 70.8272 32.856C71.0432 32.656 71.3232 32.556 71.6672 32.556C72.0112 32.556 72.2912 32.652 72.5072 32.844C72.7232 33.036 72.8312 33.276 72.8312 33.564C72.8312 33.876 72.7232 34.136 72.5072 34.344C72.2912 34.544 72.0112 34.644 71.6672 34.644ZM78.5046 41.688C78.3206 41.824 78.0926 41.928 77.8206 42C77.5566 42.064 77.2766 42.096 76.9806 42.096C76.2126 42.096 75.6166 41.9 75.1926 41.508C74.7766 41.116 74.5686 40.54 74.5686 39.78V37.128H73.5726V35.688H74.5686V34.116H76.4406V35.688H78.0486V37.128H76.4406V39.756C76.4406 40.028 76.5086 40.24 76.6446 40.392C76.7886 40.536 76.9886 40.608 77.2446 40.608C77.5406 40.608 77.7926 40.528 78.0006 40.368L78.5046 41.688ZM82.1594 35.448C83.1594 35.448 83.9274 35.688 84.4634 36.168C84.9994 36.64 85.2674 37.356 85.2674 38.316V42H83.5154V41.196C83.1634 41.796 82.5074 42.096 81.5474 42.096C81.0514 42.096 80.6194 42.012 80.2514 41.844C79.8914 41.676 79.6154 41.444 79.4234 41.148C79.2314 40.852 79.1354 40.516 79.1354 40.14C79.1354 39.54 79.3594 39.068 79.8074 38.724C80.2634 38.38 80.9634 38.208 81.9074 38.208H83.3954C83.3954 37.8 83.2714 37.488 83.0234 37.272C82.7754 37.048 82.4034 36.936 81.9074 36.936C81.5634 36.936 81.2234 36.992 80.8874 37.104C80.5594 37.208 80.2794 37.352 80.0474 37.536L79.3754 36.228C79.7274 35.98 80.1474 35.788 80.6354 35.652C81.1314 35.516 81.6394 35.448 82.1594 35.448ZM82.0154 40.836C82.3354 40.836 82.6194 40.764 82.8674 40.62C83.1154 40.468 83.2914 40.248 83.3954 39.96V39.3H82.1114C81.3434 39.3 80.9594 39.552 80.9594 40.056C80.9594 40.296 81.0514 40.488 81.2354 40.632C81.4274 40.768 81.6874 40.836 82.0154 40.836ZM88.7497 36.396C88.9737 36.084 89.2737 35.848 89.6497 35.688C90.0337 35.528 90.4737 35.448 90.9697 35.448V37.176C90.7617 37.16 90.6217 37.152 90.5497 37.152C90.0137 37.152 89.5937 37.304 89.2897 37.608C88.9857 37.904 88.8337 38.352 88.8337 38.952V42H86.9617V35.544H88.7497V36.396ZM92.0828 35.544H93.9548V42H92.0828V35.544ZM93.0188 34.644C92.6748 34.644 92.3948 34.544 92.1788 34.344C91.9628 34.144 91.8548 33.896 91.8548 33.6C91.8548 33.304 91.9628 33.056 92.1788 32.856C92.3948 32.656 92.6748 32.556 93.0188 32.556C93.3628 32.556 93.6428 32.652 93.8588 32.844C94.0748 33.036 94.1828 33.276 94.1828 33.564C94.1828 33.876 94.0748 34.136 93.8588 34.344C93.6428 34.544 93.3628 34.644 93.0188 34.644ZM98.2961 35.448C99.2961 35.448 100.064 35.688 100.6 36.168C101.136 36.64 101.404 37.356 101.404 38.316V42H99.6521V41.196C99.3001 41.796 98.6441 42.096 97.6841 42.096C97.1881 42.096 96.7561 42.012 96.3881 41.844C96.0281 41.676 95.7521 41.444 95.5601 41.148C95.3681 40.852 95.2721 40.516 95.2721 40.14C95.2721 39.54 95.4961 39.068 95.9441 38.724C96.4001 38.38 97.1001 38.208 98.0441 38.208H99.5321C99.5321 37.8 99.4081 37.488 99.1601 37.272C98.9121 37.048 98.5401 36.936 98.0441 36.936C97.7001 36.936 97.3601 36.992 97.0241 37.104C96.6961 37.208 96.4161 37.352 96.1841 37.536L95.5121 36.228C95.8641 35.98 96.2841 35.788 96.7721 35.652C97.2681 35.516 97.7761 35.448 98.2961 35.448ZM98.1521 40.836C98.4721 40.836 98.7561 40.764 99.0041 40.62C99.2521 40.468 99.4281 40.248 99.5321 39.96V39.3H98.2481C97.4801 39.3 97.0961 39.552 97.0961 40.056C97.0961 40.296 97.1881 40.488 97.3721 40.632C97.5641 40.768 97.8241 40.836 98.1521 40.836ZM112.821 38.796C112.821 38.82 112.809 38.988 112.785 39.3H107.901C107.989 39.7 108.197 40.016 108.525 40.248C108.853 40.48 109.261 40.596 109.749 40.596C110.085 40.596 110.381 40.548 110.637 40.452C110.901 40.348 111.145 40.188 111.369 39.972L112.365 41.052C111.757 41.748 110.869 42.096 109.701 42.096C108.973 42.096 108.329 41.956 107.769 41.676C107.209 41.388 106.777 40.992 106.473 40.488C106.169 39.984 106.017 39.412 106.017 38.772C106.017 38.14 106.165 37.572 106.461 37.068C106.765 36.556 107.177 36.16 107.697 35.88C108.225 35.592 108.813 35.448 109.461 35.448C110.093 35.448 110.665 35.584 111.177 35.856C111.689 36.128 112.089 36.52 112.377 37.032C112.673 37.536 112.821 38.124 112.821 38.796ZM109.473 36.864C109.049 36.864 108.693 36.984 108.405 37.224C108.117 37.464 107.941 37.792 107.877 38.208H111.057C110.993 37.8 110.817 37.476 110.529 37.236C110.241 36.988 109.889 36.864 109.473 36.864ZM121.618 42.144C120.762 42.144 119.986 41.96 119.29 41.592C118.602 41.216 118.058 40.7 117.658 40.044C117.266 39.38 117.07 38.632 117.07 37.8C117.07 36.968 117.266 36.224 117.658 35.568C118.058 34.904 118.602 34.388 119.29 34.02C119.986 33.644 120.766 33.456 121.63 33.456C122.358 33.456 123.014 33.584 123.598 33.84C124.19 34.096 124.686 34.464 125.086 34.944L123.838 36.096C123.27 35.44 122.566 35.112 121.726 35.112C121.206 35.112 120.742 35.228 120.334 35.46C119.926 35.684 119.606 36 119.374 36.408C119.15 36.816 119.038 37.28 119.038 37.8C119.038 38.32 119.15 38.784 119.374 39.192C119.606 39.6 119.926 39.92 120.334 40.152C120.742 40.376 121.206 40.488 121.726 40.488C122.566 40.488 123.27 40.156 123.838 39.492L125.086 40.644C124.686 41.132 124.19 41.504 123.598 41.76C123.006 42.016 122.346 42.144 121.618 42.144ZM128.823 35.448C129.823 35.448 130.591 35.688 131.127 36.168C131.663 36.64 131.931 37.356 131.931 38.316V42H130.179V41.196C129.827 41.796 129.171 42.096 128.211 42.096C127.715 42.096 127.283 42.012 126.915 41.844C126.555 41.676 126.279 41.444 126.087 41.148C125.895 40.852 125.799 40.516 125.799 40.14C125.799 39.54 126.023 39.068 126.471 38.724C126.927 38.38 127.627 38.208 128.571 38.208H130.059C130.059 37.8 129.935 37.488 129.687 37.272C129.439 37.048 129.067 36.936 128.571 36.936C128.227 36.936 127.887 36.992 127.551 37.104C127.223 37.208 126.943 37.352 126.711 37.536L126.039 36.228C126.391 35.98 126.811 35.788 127.299 35.652C127.795 35.516 128.303 35.448 128.823 35.448ZM128.679 40.836C128.999 40.836 129.283 40.764 129.531 40.62C129.779 40.468 129.955 40.248 130.059 39.96V39.3H128.775C128.007 39.3 127.623 39.552 127.623 40.056C127.623 40.296 127.715 40.488 127.899 40.632C128.091 40.768 128.351 40.836 128.679 40.836ZM135.678 35.688H137.334V37.128H135.726V42H133.854V37.128H132.858V35.688H133.854V35.4C133.854 34.664 134.07 34.08 134.502 33.648C134.942 33.216 135.558 33 136.35 33C136.63 33 136.894 33.032 137.142 33.096C137.398 33.152 137.61 33.236 137.778 33.348L137.286 34.704C137.07 34.552 136.818 34.476 136.53 34.476C135.962 34.476 135.678 34.788 135.678 35.412V35.688ZM144.508 38.796C144.508 38.82 144.496 38.988 144.472 39.3H139.588C139.676 39.7 139.884 40.016 140.212 40.248C140.54 40.48 140.948 40.596 141.436 40.596C141.772 40.596 142.068 40.548 142.324 40.452C142.588 40.348 142.832 40.188 143.056 39.972L144.052 41.052C143.444 41.748 142.556 42.096 141.388 42.096C140.66 42.096 140.016 41.956 139.456 41.676C138.896 41.388 138.464 40.992 138.16 40.488C137.856 39.984 137.704 39.412 137.704 38.772C137.704 38.14 137.852 37.572 138.148 37.068C138.452 36.556 138.864 36.16 139.384 35.88C139.912 35.592 140.5 35.448 141.148 35.448C141.78 35.448 142.352 35.584 142.864 35.856C143.376 36.128 143.776 36.52 144.064 37.032C144.36 37.536 144.508 38.124 144.508 38.796ZM141.16 36.864C140.736 36.864 140.38 36.984 140.092 37.224C139.804 37.464 139.628 37.792 139.564 38.208H142.744C142.68 37.8 142.504 37.476 142.216 37.236C141.928 36.988 141.576 36.864 141.16 36.864ZM149.919 41.688C149.735 41.824 149.507 41.928 149.235 42C148.971 42.064 148.691 42.096 148.395 42.096C147.627 42.096 147.031 41.9 146.607 41.508C146.191 41.116 145.983 40.54 145.983 39.78V37.128H144.987V35.688H145.983V34.116H147.855V35.688H149.463V37.128H147.855V39.756C147.855 40.028 147.923 40.24 148.059 40.392C148.203 40.536 148.403 40.608 148.659 40.608C148.955 40.608 149.207 40.528 149.415 40.368L149.919 41.688ZM157.094 38.796C157.094 38.82 157.082 38.988 157.058 39.3H152.174C152.262 39.7 152.47 40.016 152.798 40.248C153.126 40.48 153.534 40.596 154.022 40.596C154.358 40.596 154.654 40.548 154.91 40.452C155.174 40.348 155.418 40.188 155.642 39.972L156.638 41.052C156.03 41.748 155.142 42.096 153.974 42.096C153.246 42.096 152.602 41.956 152.042 41.676C151.482 41.388 151.05 40.992 150.746 40.488C150.442 39.984 150.29 39.412 150.29 38.772C150.29 38.14 150.438 37.572 150.734 37.068C151.038 36.556 151.45 36.16 151.97 35.88C152.498 35.592 153.086 35.448 153.734 35.448C154.366 35.448 154.938 35.584 155.45 35.856C155.962 36.128 156.362 36.52 156.65 37.032C156.946 37.536 157.094 38.124 157.094 38.796ZM153.746 36.864C153.322 36.864 152.966 36.984 152.678 37.224C152.39 37.464 152.214 37.792 152.15 38.208H155.33C155.266 37.8 155.09 37.476 154.802 37.236C154.514 36.988 154.162 36.864 153.746 36.864ZM160.129 36.396C160.353 36.084 160.653 35.848 161.029 35.688C161.413 35.528 161.853 35.448 162.349 35.448V37.176C162.141 37.16 162.001 37.152 161.929 37.152C161.393 37.152 160.973 37.304 160.669 37.608C160.365 37.904 160.213 38.352 160.213 38.952V42H158.341V35.544H160.129V36.396ZM163.462 35.544H165.334V42H163.462V35.544ZM164.398 34.644C164.054 34.644 163.774 34.544 163.558 34.344C163.342 34.144 163.234 33.896 163.234 33.6C163.234 33.304 163.342 33.056 163.558 32.856C163.774 32.656 164.054 32.556 164.398 32.556C164.742 32.556 165.022 32.652 165.238 32.844C165.454 33.036 165.562 33.276 165.562 33.564C165.562 33.876 165.454 34.136 165.238 34.344C165.022 34.544 164.742 34.644 164.398 34.644ZM169.675 35.448C170.675 35.448 171.443 35.688 171.979 36.168C172.515 36.64 172.783 37.356 172.783 38.316V42H171.031V41.196C170.679 41.796 170.023 42.096 169.063 42.096C168.567 42.096 168.135 42.012 167.767 41.844C167.407 41.676 167.131 41.444 166.939 41.148C166.747 40.852 166.651 40.516 166.651 40.14C166.651 39.54 166.875 39.068 167.323 38.724C167.779 38.38 168.479 38.208 169.423 38.208H170.911C170.911 37.8 170.787 37.488 170.539 37.272C170.291 37.048 169.919 36.936 169.423 36.936C169.079 36.936 168.739 36.992 168.403 37.104C168.075 37.208 167.795 37.352 167.563 37.536L166.891 36.228C167.243 35.98 167.663 35.788 168.151 35.652C168.647 35.516 169.155 35.448 169.675 35.448ZM169.531 40.836C169.851 40.836 170.135 40.764 170.383 40.62C170.631 40.468 170.807 40.248 170.911 39.96V39.3H169.627C168.859 39.3 168.475 39.552 168.475 40.056C168.475 40.296 168.567 40.488 168.751 40.632C168.943 40.768 169.203 40.836 169.531 40.836Z" fill="#C19A0B"/>
</svg>
